<?xml version="1.0" encoding="UTF-8"?>
<!--Generator: Apple Native CoreSVG 232.5-->
<!DOCTYPE svg
PUBLIC "-//W3C//DTD SVG 1.1//EN"
       "http://www.w3.org/Graphics/SVG/1.1/DTD/svg11.dtd">
<svg version="1.1" xmlns="http://www.w3.org/2000/svg" xmlns:xlink="http://www.w3.org/1999/xlink" width="30.249" height="29.8975">
 <g>
  <rect height="29.8975" opacity="0" width="30.249" x="0" y="0"/>
  <path d="M29.8828 14.9414C29.8828 23.1006 23.1152 29.8828 14.9414 29.8828C6.78223 29.8828 0 23.1006 0 14.9414C0 6.76758 6.76758 0 14.9268 0C23.1006 0 29.8828 6.76758 29.8828 14.9414ZM18.9258 9.18457C18.3252 9.18457 17.9883 9.49219 17.9883 10.1221L17.9883 14.5312C17.8857 14.2969 17.6953 14.0918 17.3877 13.916L10.1807 9.68262C9.91699 9.52148 9.65332 9.43359 9.38965 9.43359C8.81836 9.43359 8.36426 9.84375 8.36426 10.6201L8.36426 19.3066C8.36426 20.0977 8.81836 20.4932 9.38965 20.4932C9.65332 20.4932 9.91699 20.4053 10.1807 20.2441L17.3877 16.0107C17.6953 15.835 17.8857 15.6299 17.9883 15.3955L17.9883 19.7607C17.9883 20.3906 18.3252 20.6982 18.9258 20.6982L20.5518 20.6982C21.1523 20.6982 21.4893 20.3906 21.4893 19.7607L21.4893 10.1221C21.4893 9.50684 21.1523 9.18457 20.5518 9.18457Z" fill="#ffffff" fill-opacity="0.85"/>
 </g>
</svg>
