<?xml version="1.0" encoding="UTF-8"?>
<!--Generator: Apple Native CoreSVG 232.5-->
<!DOCTYPE svg
PUBLIC "-//W3C//DTD SVG 1.1//EN"
       "http://www.w3.org/Graphics/SVG/1.1/DTD/svg11.dtd">
<svg version="1.1" xmlns="http://www.w3.org/2000/svg" xmlns:xlink="http://www.w3.org/1999/xlink" width="35.332" height="33.2446">
 <g>
  <rect height="33.2446" opacity="0" width="35.332" x="0" y="0"/>
  <path d="M18.3691 5.83374L30.4102 15.9265L30.4102 27.5281C30.4102 29.5642 29.1943 30.7654 27.1289 30.7654L7.86621 30.7654C5.80078 30.7654 4.57031 29.5642 4.57031 27.5281L4.57031 15.9265L16.6113 5.83374C17.1533 5.37964 17.8125 5.36499 18.3691 5.83374ZM13.6523 14.6814L13.6523 25.2722C13.6523 25.9607 14.3848 26.2244 14.9414 25.8875L23.833 20.658C24.3604 20.3357 24.3457 19.6033 23.8184 19.3103L14.9414 14.0662C14.3848 13.7439 13.6523 13.9929 13.6523 14.6814ZM19.2627 0.692139L26.7334 6.97155L26.7334 4.19312C26.7334 3.54858 27.1582 3.13843 27.7881 3.13843L29.3555 3.13843C30 3.13843 30.4102 3.54858 30.4102 4.19312L30.4102 10.062L34.5117 13.5095C34.8193 13.7732 34.9658 14.0662 34.9658 14.5056C34.9658 15.2087 34.4092 15.6335 33.7207 15.6335C33.3105 15.6335 32.9736 15.4138 32.6807 15.1648L18.0176 2.86011C17.6953 2.56714 17.2998 2.56714 16.9775 2.86011L2.31445 15.1648C2.00684 15.4138 1.66992 15.6335 1.25977 15.6335C0.46875 15.6335 0 15.0623 0 14.4617C0 14.1248 0.146484 13.7732 0.46875 13.5095L15.7324 0.692139C16.8311-0.230713 18.1787-0.230713 19.2627 0.692139Z" fill="#ff453a"/>
 </g>
</svg>
