<?xml version="1.0" encoding="UTF-8"?>
<!--Generator: Apple Native CoreSVG 232.5-->
<!DOCTYPE svg
PUBLIC "-//W3C//DTD SVG 1.1//EN"
       "http://www.w3.org/Graphics/SVG/1.1/DTD/svg11.dtd">
<svg version="1.1" xmlns="http://www.w3.org/2000/svg" xmlns:xlink="http://www.w3.org/1999/xlink" width="34.5787" height="37.2579">
 <g>
  <rect height="37.2579" opacity="0" width="34.5787" x="0" y="0"/>
  <path d="M32.011 3.29937L32.3919 4.73492C32.7874 6.273 32.055 7.60601 30.4436 8.03082L14.389 12.3375L31.4983 12.3375C33.1536 12.3375 34.2083 13.3921 34.2083 15.0181L34.2083 28.6851C34.2083 31.5562 32.7581 33.0211 29.8138 33.0211L5.73173 33.0211C2.80204 33.0211 1.32255 31.5709 1.32255 28.6851L1.32255 15.8531L0.223918 11.8248C-0.508504 9.05621 0.560832 7.25445 3.35868 6.49273L26.6204 0.237848C29.4329-0.509222 31.2933 0.50152 32.011 3.29937ZM3.60771 20.7896L3.60771 28.5533C3.60771 29.9888 4.38407 30.7359 5.76103 30.7359L29.7698 30.7359C31.1468 30.7359 31.9378 29.9888 31.9378 28.5533L31.9378 20.7896ZM10.7854 14.6226L6.9622 14.7984L4.86747 18.6949L9.68681 18.6949L11.8841 14.6226ZM16.3518 14.6226L14.1692 18.6949L19.3401 18.6949L21.5374 14.6226ZM26.0052 14.6226L23.8226 18.6949L28.6272 18.6949L30.8245 14.6226ZM5.26298 8.35308L4.16435 12.8502L8.8372 11.5904L9.89189 7.09332ZM14.2278 5.93609L13.1731 10.4332L18.1683 9.1148L19.2229 4.60308ZM27.0745 2.47906L23.5442 3.44586L22.4749 7.94293L27.1331 6.69781L28.1731 2.23004C27.8216 2.30328 27.4554 2.37652 27.0745 2.47906Z" fill="#ff453a"/>
 </g>
</svg>
