<?xml version="1.0" encoding="UTF-8"?>
<!--Generator: Apple Native CoreSVG 232.5-->
<!DOCTYPE svg
PUBLIC "-//W3C//DTD SVG 1.1//EN"
       "http://www.w3.org/Graphics/SVG/1.1/DTD/svg11.dtd">
<svg version="1.1" xmlns="http://www.w3.org/2000/svg" xmlns:xlink="http://www.w3.org/1999/xlink" width="34.9072" height="26.9678">
 <g>
  <rect height="26.9678" opacity="0" width="34.9072" x="0" y="0"/>
  <path d="M34.541 4.54102L34.541 22.4414C34.541 25.459 33.0176 26.9678 29.9414 26.9678L4.59961 26.9678C1.53809 26.9678 0 25.459 0 22.4414L0 4.54102C0 1.52344 1.53809 0 4.59961 0L29.9414 0C33.0176 0 34.541 1.52344 34.541 4.54102ZM12.9785 8.24707L12.9785 18.75C12.9785 19.4824 13.7988 19.8193 14.4873 19.3945L23.1006 14.3262C23.7305 13.9453 23.7158 13.0664 23.1006 12.7002L14.4873 7.60254C13.8574 7.22168 12.9785 7.5293 12.9785 8.24707Z" fill="#ff453a"/>
 </g>
</svg>
